<svg xmlns="http://www.w3.org/2000/svg" viewBox="0 0 320 320" width="320" height="320">
  <defs>
    <linearGradient id="bg" x1="0" y1="0" x2="1" y2="1">
      <stop offset="0" stop-color="#5b4fc4"/>
      <stop offset="1" stop-color="#2f2a7a"/>
    </linearGradient>
  </defs>
  <rect x="20" y="20" width="280" height="280" rx="64" fill="url(#bg)"/>
  <path d="M104 70h82l44 44v82H104z" fill="#ffffff"/>
  <path d="M186 70v44h44" fill="#d9d4f7"/>
  <path d="M128 128h48M128 152h64M128 176h44" stroke="#5b4fc4" stroke-width="10" stroke-linecap="round"/>
  <path d="M160 196v62M130 228l30 30 30-30" stroke="#ffffff" stroke-width="22" stroke-linecap="round" stroke-linejoin="round" fill="none"/>
  <path d="M62 262c14-12 24-8 32 0s18 10 30-6 22-6 30 2 18 10 30-4 22-6 36 4" stroke="#9fe0b0" stroke-width="12" fill="none" stroke-linecap="round" stroke-linejoin="round"/>
</svg>
